<svg width="51" height="71" viewBox="0 0 51 71" fill="none" xmlns="http://www.w3.org/2000/svg">
<path d="M42.128 3.728C42.464 3.2 43.304 2.624 44.648 2C46.04 1.328 47.216 0.991996 48.176 0.991996C49.424 0.991996 49.952 1.592 49.76 2.792C49.232 5.912 48.56 9.272 47.744 12.872C46.976 16.424 46.496 18.68 46.304 19.64C44.672 27.128 43.52 32.768 42.848 36.56L42.344 39.368C41.816 42.152 41.384 44.672 41.048 46.928C40.76 49.184 40.616 51.392 40.616 53.552C40.616 58.688 41.696 62.6 43.856 65.288C44.144 65.672 44.288 66.056 44.288 66.44C44.288 67.352 43.664 68.168 42.416 68.888C41.216 69.656 40.016 70.04 38.816 70.04C37.808 70.04 37.112 69.776 36.728 69.248C34.184 66.08 32.912 61.592 32.912 55.784C32.912 53.48 33.032 51.248 33.272 49.088C33.56 46.928 33.992 44.168 34.568 40.808C35.336 35.912 36.608 29.624 38.384 21.944C38.288 22.04 38.24 22.112 38.24 22.16C37.952 22.64 37.328 23.84 36.368 25.76C34.928 28.688 33.584 30.992 32.336 32.672C31.088 34.352 29.504 35.504 27.584 36.128C26.672 36.416 25.808 36.56 24.992 36.56C23.36 36.56 22.16 35.936 21.392 34.688C20.624 33.392 20.168 31.664 20.024 29.504L19.808 26.048C19.376 27.392 18.92 28.952 18.44 30.728L17.072 35.408C15.392 41.216 13.904 46.04 12.608 49.88C11.36 53.672 9.896 57.392 8.216 61.04C7.928 61.712 7.16 62.312 5.912 62.84C4.712 63.368 3.56 63.632 2.456 63.632C1.832 63.632 1.328 63.536 0.944 63.344C0.56 63.104 0.368 62.768 0.368 62.336C0.368 62.096 0.44 61.832 0.584 61.544C2.312 57.704 3.824 53.816 5.12 49.88C6.416 45.896 8 40.664 9.872 34.184L11.168 29.72C13.088 23.192 14.576 18.296 15.632 15.032L16.064 13.52C16.544 11.936 17 10.64 17.432 9.632C17.864 8.624 18.416 7.712 19.088 6.896C19.472 6.416 20.168 5.936 21.176 5.456C22.232 4.976 23.216 4.736 24.128 4.736C25.52 4.736 26.24 5.36 26.288 6.608C26.384 8.768 26.624 12.008 27.008 16.328L27.296 19.712C27.344 20.144 27.368 21.008 27.368 22.304C27.368 24.8 27.44 26.648 27.584 27.848L29.456 24.608C30.032 23.552 31.256 21.416 33.128 18.2C35.624 14.024 38.624 9.2 42.128 3.728Z" fill="white"/>
</svg>
